<svg xmlns="http://www.w3.org/2000/svg" width="20" height="20" viewBox="0 0 20 20" fill="currentColor">
<g opacity="0.9">
<path d="M10.0001 2.4998C5.85797 2.4998 2.5001 5.85766 2.5001 9.9998C2.5001 11.6753 3.04896 13.2221 3.97786 14.471C4.54224 12.8387 6.09261 11.6665 7.91677 11.6665H12.0834C13.9076 11.6665 15.458 12.8387 16.0223 14.471C16.9512 13.2221 17.5001 11.6753 17.5001 9.9998C17.5001 5.85766 14.1422 2.4998 10.0001 2.4998ZM14.5834 15.9369V15.8331C14.5834 14.4524 13.4641 13.3331 12.0834 13.3331H7.91677C6.53606 13.3331 5.41677 14.4524 5.41677 15.8331V15.9369C6.68443 16.9172 8.27331 17.4998 10.0001 17.4998C11.7269 17.4998 13.3158 16.9172 14.5834 15.9369ZM0.833435 9.9998C0.833435 4.93719 4.93749 0.83313 10.0001 0.83313C15.0627 0.83313 19.1668 4.93719 19.1668 9.9998C19.1668 12.7879 17.921 15.2859 15.9587 16.9658C14.3568 18.3373 12.2742 19.1665 10.0001 19.1665C7.726 19.1665 5.64345 18.3373 4.04148 16.9658C2.07917 15.2859 0.833435 12.7879 0.833435 9.9998ZM10.0001 4.9998C8.84951 4.9998 7.91677 5.93254 7.91677 7.08313C7.91677 8.23372 8.84951 9.16646 10.0001 9.16646C11.1507 9.16646 12.0834 8.23372 12.0834 7.08313C12.0834 5.93254 11.1507 4.9998 10.0001 4.9998ZM6.2501 7.08313C6.2501 5.01206 7.92903 3.33313 10.0001 3.33313C12.0712 3.33313 13.7501 5.01206 13.7501 7.08313C13.7501 9.1542 12.0712 10.8331 10.0001 10.8331C7.92903 10.8331 6.2501 9.1542 6.2501 7.08313Z" fill="currentColor"/>
</g>
</svg>